# xmcd
#
# Track frame offsets: 
#        150
#        13727
#        28615
#        47452
#        65927
#        83977
#        99185
#        109052
#        130535
#        146552
#        168315
#        184632
#
# Disc length: 2640 seconds
#
# Revision: 2
# Processed by: cddbd v1.5.2PL0 Copyright (c) Steve Scherf et al.
# Submitted via: ExactAudioCopy v0.95b4
#
DISCID=970a4e0c
DTITLE=John Denver - John Denver's Greatest Hits, Volume Two
DYEAR=1983
DGENRE=Country
TTITLE0=Annie's Song
TTITLE1=Welcome To My Morning (Farewell Andromeda)
TTITLE2=Fly Away
TTITLE3=Like A Sad Song
TTITLE4=Looking For Space
TTITLE5=Thank God I'm A Country Boy
TTITLE6=Grandma's Feather Bed
TTITLE7=Back Home Again
TTITLE8=I'm Sorry
TTITLE9=My Sweet Lady
TTITLE10=Calypso
TTITLE11=This Old Guitar
EXTD=
EXTT0=
EXTT1=
EXTT2=
EXTT3=
EXTT4=
EXTT5=
EXTT6=
EXTT7=
EXTT8=
EXTT9=
EXTT10=
EXTT11=
PLAYORDER=
